# xmcd CD database file
#
# Track frame offsets:
#	150
#	38550
#	58350
#	75900
#	91425
#	122316
#	144113
#	175950
#	198207
#	242129
#	264554
#	294667
#	312150
#
# Disc length: 4554 seconds
#
# Revision: 0
# Processed by: cddbd v1.5.2PL0 Copyright (c) Steve Scherf et al.
# Submitted via: CDex 1.51
#
DISCID=aa11c80d
DTITLE=Oscar Peterson Trio - Put On A Happy Face and Something Warm
DYEAR=1961
DGENRE=Jazz
TTITLE0=Put On A Happy Face
TTITLE1=Old Folks
TTITLE2=Woody'n You
TTITLE3=Yesterdays
TTITLE4=Diablo
TTITLE5=Soon
TTITLE6=The Lonesome One
TTITLE7=There's No Greater Love (Something Warm)
TTITLE8=I remember Clifford
TTITLE9=Autumn Leaves
TTITLE10=Blues For Big Scotia
TTITLE11=Swamp Fire
TTITLE12=I love You
EXTD=YEAR: 1961
EXTT0=
EXTT1=
EXTT2=
EXTT3=
EXTT4=
EXTT5=
EXTT6=
EXTT7=
EXTT8=
EXTT9=
EXTT10=
EXTT11=
EXTT12=
PLAYORDER=
